<?xml version="1.0" standalone="no"?>
<!DOCTYPE svg PUBLIC "-//W3C//DTD SVG 20010904//EN"
 "http://www.w3.org/TR/2001/REC-SVG-20010904/DTD/svg10.dtd">
<svg version="1.0" xmlns="http://www.w3.org/2000/svg"
 width="200.000000pt" height="200.000000pt" viewBox="0 0 200.000000 200.000000"
 preserveAspectRatio="xMidYMid meet">

<g transform="translate(0.000000,200.000000) scale(0.100000,-0.100000)"
fill="#000000" stroke="none">
<path d="M865 1919 c-147 -25 -270 -92 -390 -213 -146 -147 -208 -295 -209
-501 -1 -135 20 -224 78 -336 116 -225 334 -372 589 -396 l68 -6 -3 134 -3
134 -60 7 c-114 13 -213 63 -286 147 -248 280 -86 723 281 769 l55 7 3 133 3
132 -38 -1 c-21 -1 -60 -5 -88 -10z"/>
<path d="M893 1516 c-101 -32 -182 -113 -213 -214 -25 -81 -25 -123 0 -205 36
-118 146 -209 268 -224 l52 -6 2 129 2 129 3 -125 c3 -118 5 -126 28 -145 37
-31 37 -71 0 -111 -24 -26 -25 -33 -25 -145 l0 -119 25 0 c44 0 132 40 178 80
24 22 57 65 73 97 25 50 29 69 29 143 0 109 -26 171 -99 237 -57 51 -110 77
-176 87 -25 4 -57 12 -73 18 -51 20 -49 96 3 118 l30 12 0 129 0 129 -32 -1
c-18 0 -52 -6 -75 -13z"/>
<path d="M1017 1524 c-4 -4 -7 -62 -7 -129 l0 -121 66 -11 c171 -30 323 -169
369 -337 24 -89 17 -220 -15 -296 -26 -61 -70 -129 -103 -161 -67 -65 -187
-122 -272 -130 -52 -5 -55 -12 -55 -140 l0 -119 53 0 c101 0 232 48 355 129
57 38 170 153 197 201 85 148 110 236 110 395 0 130 -20 215 -72 320 -31 61
-102 160 -140 196 -79 73 -221 158 -273 162 -11 1 -20 4 -20 8 0 13 -182 44
-193 33z"/>
</g>
</svg>
