<?xml version="1.0" standalone="no"?>
<!DOCTYPE svg PUBLIC "-//W3C//DTD SVG 20010904//EN"
 "http://www.w3.org/TR/2001/REC-SVG-20010904/DTD/svg10.dtd">
<svg version="1.0" xmlns="http://www.w3.org/2000/svg"
 width="2048.000000pt" height="804.000000pt" viewBox="0 0 2048.000000 804.000000"
 preserveAspectRatio="xMidYMid meet">

<g transform="translate(0.000000,804.000000) scale(0.100000,-0.100000)"
fill="#000000" stroke="none">
<path d="M790 5055 l0 -2585 1035 0 1035 0 0 515 0 515 518 2 517 3 3 2068 2
2067 -520 0 -520 0 0 -2065 0 -2065 -520 0 -520 0 0 2065 0 2065 -515 0 -515
0 0 -2585z"/>
<path d="M5962 6608 l3 -1033 518 -3 517 -2 0 -515 0 -515 -520 0 -520 0 0
-1035 0 -1035 1040 0 1040 0 -2 518 -3 517 -518 3 -517 2 2 513 3 512 518 3
517 2 -2 518 -3 517 -517 3 -518 2 0 515 0 515 520 0 520 0 0 515 0 515 -1040
0 -1040 0 2 -1032z"/>
<path d="M11140 7125 l0 -515 -515 0 -515 0 0 -2070 0 -2070 515 0 515 0 2
2068 3 2067 518 3 517 2 0 515 0 515 -520 0 -520 0 0 -515z"/>
<path d="M13762 6608 l3 -1033 513 -3 512 -2 0 -1030 0 -1030 -512 -2 -513 -3
-3 -517 -2 -518 1035 0 1035 0 0 1555 0 1555 -515 0 -515 0 0 515 0 515 515 0
515 0 0 515 0 515 -1035 0 -1035 0 2 -1032z"/>
<path d="M17900 5570 l0 -2070 518 -2 517 -3 3 -512 2 -513 515 0 515 0 -2
518 -3 517 -512 3 -513 2 0 515 0 515 515 0 515 0 0 520 0 520 -515 0 -515 0
0 515 0 515 515 0 515 0 0 515 0 515 -1035 0 -1035 0 0 -2070z"/>
<path d="M2339 1561 c-36 -37 -38 -79 -5 -118 50 -58 156 -22 156 53 0 46 -9
63 -41 79 -43 23 -77 18 -110 -14z"/>
<path d="M10343 1566 c-22 -19 -28 -32 -28 -66 0 -45 24 -74 71 -86 59 -15
123 51 108 111 -15 62 -100 85 -151 41z"/>
<path d="M13827 1570 c-31 -25 -42 -65 -26 -102 12 -29 54 -58 84 -58 30 0 72
29 84 58 24 59 -19 122 -84 122 -18 0 -44 -9 -58 -20z"/>
<path d="M6740 1205 l0 -125 -130 0 -130 0 0 -60 0 -59 128 -3 127 -3 3 -122
3 -123 54 0 55 0 0 125 0 125 130 0 131 0 -3 58 -3 57 -127 3 -128 3 0 124 0
125 -55 0 -55 0 0 -125z"/>
<path d="M1011 1269 c-146 -28 -234 -145 -202 -266 25 -92 86 -128 282 -167
137 -28 172 -46 177 -94 7 -69 -47 -103 -161 -103 -88 -1 -153 13 -219 47 -41
21 -53 23 -60 12 -13 -20 -48 -86 -48 -92 0 -3 22 -17 50 -31 79 -40 171 -57
286 -53 89 3 107 7 167 37 101 49 142 125 123 226 -17 88 -101 137 -290 169
-143 25 -194 65 -170 133 27 79 226 97 347 33 l37 -20 25 50 c14 27 25 53 25
58 0 14 -88 49 -154 61 -68 13 -151 13 -215 0z"/>
<path d="M1785 1267 c-172 -44 -274 -170 -283 -348 -8 -170 67 -297 217 -368
50 -23 68 -26 166 -26 105 0 114 2 177 33 62 30 128 91 128 117 0 8 -82 65
-94 65 -1 0 -21 -17 -43 -38 -107 -102 -299 -76 -378 52 -25 42 -31 62 -34
128 -4 100 14 152 74 207 43 40 120 71 175 71 56 0 125 -29 164 -69 l38 -39
49 31 c27 16 49 35 49 42 0 25 -95 105 -149 126 -69 26 -188 33 -256 16z"/>
<path d="M2890 1265 c-183 -52 -295 -236 -261 -431 24 -133 82 -214 196 -270
65 -32 86 -37 168 -42 69 -3 108 0 153 12 66 19 164 81 164 104 0 8 -15 31
-33 51 l-34 37 -33 -28 c-51 -42 -120 -61 -204 -56 -83 6 -138 30 -185 84 -31
34 -39 50 -55 102 l-7 22 302 0 302 0 -5 83 c-7 143 -74 249 -193 308 -78 38
-189 48 -275 24z m221 -133 c42 -21 61 -40 87 -82 17 -30 32 -64 32 -77 l0
-23 -235 0 c-181 0 -235 3 -235 13 0 30 51 116 86 146 73 59 178 69 265 23z"/>
<path d="M3810 1265 c-60 -17 -90 -34 -132 -73 l-28 -26 0 52 0 52 -65 0 -65
0 0 -370 0 -370 69 0 70 0 3 238 c3 230 4 238 27 279 14 24 42 55 64 70 35 24
52 29 123 31 107 5 152 -17 189 -92 25 -49 25 -54 25 -288 l0 -238 71 0 71 0
-4 263 -3 262 -33 67 c-51 103 -122 147 -252 154 -48 3 -95 -1 -130 -11z"/>
<path d="M4665 1266 c-115 -28 -205 -100 -254 -205 -23 -49 -26 -68 -26 -161
0 -99 2 -110 33 -172 40 -81 110 -148 190 -180 47 -19 76 -23 167 -23 106 0
112 1 173 34 59 32 122 92 122 116 0 8 -82 65 -94 65 -1 0 -21 -17 -43 -38
-106 -102 -299 -76 -377 51 -35 57 -46 159 -25 234 19 68 88 136 158 157 68
20 94 20 158 1 33 -10 65 -29 89 -54 l38 -38 48 30 c26 17 48 36 48 42 0 20
-75 92 -117 113 -79 40 -193 51 -288 28z"/>
<path d="M5427 1270 c-102 -26 -199 -106 -243 -203 -26 -56 -29 -72 -29 -167
0 -95 3 -111 29 -168 36 -78 113 -152 194 -184 48 -19 76 -23 172 -23 110 0
119 2 181 32 35 18 75 43 88 57 l23 25 -37 46 -38 46 -26 -25 c-88 -84 -265
-89 -367 -11 -38 29 -72 80 -80 123 l-6 32 298 2 299 3 -2 77 c-4 192 -146
334 -341 344 -42 2 -94 -1 -115 -6z m174 -121 c72 -22 140 -99 150 -169 l4
-25 -234 -3 -234 -2 6 37 c20 123 171 202 308 162z"/>
<path d="M7867 1270 c-84 -22 -177 -88 -223 -161 -63 -100 -72 -273 -20 -381
34 -72 117 -149 194 -180 48 -19 76 -23 172 -23 110 0 119 2 181 32 35 18 75
43 88 57 l23 25 -37 45 -37 46 -33 -29 c-54 -47 -113 -64 -204 -59 -66 4 -88
10 -128 34 -53 33 -100 93 -109 141 l-6 33 298 2 299 3 3 38 c4 51 -13 131
-42 192 -52 111 -168 184 -304 191 -42 2 -94 -1 -115 -6z m174 -121 c72 -22
140 -99 150 -169 l4 -25 -234 -3 -234 -2 6 37 c20 123 171 202 308 162z"/>
<path d="M8787 1270 c-50 -13 -106 -42 -139 -73 l-27 -25 -3 46 -3 47 -65 0
-65 0 -3 -367 -2 -368 69 0 69 0 4 233 c3 216 5 235 25 273 45 85 112 118 226
112 88 -4 130 -29 160 -97 19 -41 21 -70 25 -283 l4 -238 65 0 64 0 -3 268
c-3 254 -4 269 -26 318 -46 102 -131 154 -261 160 -42 2 -93 -1 -114 -6z"/>
<path d="M9616 1270 c-60 -16 -153 -69 -188 -109 -17 -19 -43 -60 -57 -91 -23
-48 -26 -68 -26 -155 0 -91 3 -105 29 -158 61 -120 172 -188 317 -195 106 -5
179 14 243 63 l46 35 0 -58 c0 -83 -17 -132 -59 -172 -46 -44 -97 -60 -193
-60 -86 0 -161 19 -235 60 l-51 29 -32 -49 c-38 -59 -35 -64 42 -102 84 -41
165 -58 281 -58 190 0 285 49 349 178 l33 67 3 387 3 388 -65 0 -66 0 0 -50 0
-51 -37 30 c-63 50 -128 73 -217 77 -45 2 -98 -1 -120 -6z m231 -135 c84 -35
136 -115 137 -210 0 -79 -17 -125 -65 -174 -128 -127 -384 -75 -429 89 -23 82
-2 188 48 243 20 23 85 57 127 68 42 11 137 2 182 -16z"/>
<path d="M10987 1270 c-53 -14 -108 -44 -137 -75 l-25 -27 -5 49 -5 48 -62 3
-63 3 0 -371 0 -370 64 0 64 0 4 228 c3 191 6 233 21 267 41 92 111 130 231
123 88 -4 118 -21 156 -89 24 -43 25 -49 28 -286 l4 -243 65 0 64 0 -3 268
c-3 254 -4 269 -26 318 -46 102 -134 155 -262 160 -41 2 -92 -1 -113 -6z"/>
<path d="M11810 1265 c-64 -18 -139 -64 -177 -109 -71 -84 -105 -217 -84 -331
23 -124 85 -206 196 -261 65 -32 86 -37 168 -42 69 -3 108 0 153 12 69 20 164
81 164 105 0 10 -15 32 -34 50 l-34 33 -40 -30 c-56 -40 -118 -56 -200 -50
-120 9 -211 79 -236 181 l-6 27 299 0 c345 0 319 -9 301 106 -31 193 -155 310
-336 320 -52 3 -98 -1 -134 -11z m221 -133 c42 -21 61 -40 87 -82 17 -30 32
-64 32 -77 l0 -23 -229 0 c-127 0 -232 4 -235 8 -11 18 19 85 56 127 69 78
191 98 289 47z"/>
<path d="M12659 1266 c-102 -27 -190 -103 -238 -205 -23 -49 -26 -68 -26 -161
0 -99 2 -110 33 -172 40 -81 110 -148 190 -180 48 -19 76 -23 172 -23 110 0
119 2 181 32 35 18 75 43 88 57 l24 25 -33 40 c-34 44 -50 50 -71 25 -45 -55
-194 -81 -286 -50 -63 21 -116 65 -142 119 -40 82 -59 77 280 77 l302 0 -6 79
c-8 125 -60 223 -150 285 -88 60 -214 80 -318 52z m194 -122 c68 -23 122 -87
143 -169 l6 -25 -236 0 c-270 0 -259 -5 -211 89 52 104 175 147 298 105z"/>
<path d="M13587 1269 c-52 -12 -96 -36 -134 -72 l-33 -31 0 52 0 52 -65 0 -65
0 0 -370 0 -370 64 0 64 0 4 223 c3 186 6 229 21 262 35 78 93 118 190 130
l57 7 0 64 0 64 -32 -1 c-18 -1 -50 -5 -71 -10z"/>
<path d="M14467 1270 c-53 -14 -97 -37 -134 -73 l-33 -31 0 52 0 52 -65 0 -65
0 0 -370 0 -370 65 0 65 0 0 200 c0 224 9 281 51 340 40 55 95 80 182 80 82 0
126 -17 160 -62 39 -51 46 -104 47 -340 l0 -218 65 0 65 0 0 254 c0 289 -7
327 -71 400 -51 58 -121 87 -218 92 -42 2 -93 -1 -114 -6z"/>
<path d="M15295 1267 c-113 -30 -192 -93 -241 -193 -25 -52 -28 -70 -29 -154
0 -88 3 -101 33 -162 38 -77 92 -130 171 -167 50 -23 68 -26 166 -26 121 0
181 18 238 72 l27 27 0 -70 c-1 -154 -79 -224 -250 -224 -89 0 -187 26 -244
65 -20 14 -39 25 -41 25 -2 0 -18 -23 -35 -52 -37 -59 -37 -58 52 -104 71 -36
161 -54 274 -54 144 0 220 24 289 93 88 89 89 91 93 540 l3 387 -65 0 -66 0 0
-50 0 -51 -37 30 c-87 69 -225 97 -338 68z m206 -123 c77 -23 142 -91 160
-168 23 -106 -19 -211 -107 -262 -53 -31 -155 -43 -220 -25 -144 39 -216 203
-148 339 29 59 66 89 139 114 63 22 107 22 176 2z"/>
<path d="M2330 900 l0 -370 70 0 70 0 0 370 0 370 -70 0 -70 0 0 -370z"/>
<path d="M10340 900 l0 -370 65 0 65 0 0 370 0 370 -65 0 -65 0 0 -370z"/>
<path d="M13820 900 l0 -370 65 0 65 0 0 370 0 370 -65 0 -65 0 0 -370z"/>
</g>
</svg>
